<mxfile host="app.diagrams.net" modified="2024-08-05T03:41:58.181Z" agent="Mozilla/5.0 (X11; Linux x86_64) AppleWebKit/537.36 (KHTML, like Gecko) Chrome/127.0.0.0 Safari/537.36" version="24.5.2" etag="SIhlcSYGJwB6jyD9SETu" type="github">
  <diagram name="Page-1" id="e_zWnI6Te8La8Yxomigo">
    <mxGraphModel>
      <root>
        <mxCell id="0" />
        <mxCell id="1" parent="0" />
      </root>
    </mxGraphModel>
  </diagram>
</mxfile>
